<?xml version="1.0" standalone="no"?>
<!DOCTYPE svg PUBLIC "-//W3C//DTD SVG 20010904//EN"
 "http://www.w3.org/TR/2001/REC-SVG-20010904/DTD/svg10.dtd">
<svg version="1.0" xmlns="http://www.w3.org/2000/svg"
 width="1000.000000pt" height="1000.000000pt" viewBox="0 0 1000.000000 1000.000000"
 preserveAspectRatio="xMidYMid meet">
<metadata>
Created by potrace 1.14, written by Peter Selinger 2001-2017
</metadata>
<g transform="translate(0.000000,1000.000000) scale(0.100000,-0.100000)"
fill="#000000" stroke="none">
<path d="M3672 4938 l3 -683 130 0 130 0 5 175 5 174 140 -174 140 -175 169 0
c115 0 171 4 173 11 2 6 -77 98 -176 205 -100 107 -180 197 -178 201 1 4 76
85 167 179 91 95 166 178 168 185 3 10 -30 14 -145 16 -81 2 -157 2 -168 0
-12 -2 -74 -66 -150 -157 -72 -85 -133 -154 -137 -154 -5 -1 -8 138 -8 309 0
353 -5 383 -84 468 -37 41 -141 102 -174 102 -10 0 -12 -140 -10 -682z"/>
<path d="M6295 5496 c-22 -9 -55 -31 -72 -50 -63 -68 -37 -158 58 -206 54 -28
154 -27 215 1 52 25 94 80 94 124 0 42 -41 98 -87 120 -50 24 -157 29 -208 11z"/>
<path d="M7726 5495 c-138 -49 -145 -189 -12 -257 60 -31 177 -23 235 15 81
54 92 140 26 203 -54 51 -166 69 -249 39z"/>
<path d="M545 5478 c-2 -7 -17 -69 -34 -138 -100 -420 -125 -523 -141 -590
-47 -204 -121 -512 -127 -526 -6 -15 -1 -16 40 -11 131 18 246 133 300 302 9
28 33 127 53 220 59 281 61 291 67 275 3 -8 22 -67 42 -130 20 -63 43 -133 51
-155 7 -22 45 -143 85 -270 39 -126 74 -234 79 -238 13 -14 103 39 147 86 61
66 103 164 194 454 46 144 84 261 85 260 4 -3 92 -420 130 -607 15 -74 31
-141 37 -147 11 -15 262 -19 271 -5 5 8 -53 262 -163 717 -21 88 -55 229 -76
314 -54 226 -33 202 -177 199 l-123 -3 -24 -70 c-26 -77 -186 -588 -203 -647
-6 -21 -13 -38 -17 -38 -3 0 -39 109 -80 243 -41 133 -94 304 -118 380 l-44
137 -125 0 c-91 0 -126 -3 -129 -12z"/>
<path d="M3314 5375 c-102 -46 -167 -137 -181 -255 l-8 -65 -72 -3 c-85 -3
-86 -4 -81 -122 l3 -75 74 -5 75 -5 3 -285 c3 -157 6 -291 8 -298 4 -10 35
-12 132 -10 l128 3 3 298 2 297 75 0 c71 0 75 1 76 23 3 44 -3 172 -8 177 -2
3 -35 6 -71 7 l-67 1 -3 171 c-3 195 2 187 -88 146z"/>
<path d="M2224 5075 c-80 -17 -136 -47 -194 -101 -93 -87 -142 -242 -122 -385
34 -237 194 -378 416 -367 106 6 180 35 250 99 l55 50 46 -50 c44 -47 126 -91
170 -91 13 0 15 58 15 420 0 341 -2 420 -13 420 -63 0 -156 -55 -199 -119
l-16 -23 -37 36 c-97 98 -240 141 -371 111z m257 -235 c24 -13 52 -39 70 -68
28 -44 30 -52 27 -128 -3 -68 -7 -87 -31 -123 -62 -93 -199 -109 -281 -33 -98
92 -83 280 27 347 54 32 130 34 188 5z"/>
<path d="M5000 5084 c-171 -32 -288 -134 -331 -291 -32 -113 -18 -286 28 -361
46 -76 67 -101 112 -135 76 -58 148 -79 256 -75 111 5 196 40 267 112 42 43
47 46 53 27 15 -48 143 -131 202 -131 11 0 13 79 13 421 l0 421 -37 -7 c-58
-11 -107 -40 -152 -91 l-41 -47 -21 27 c-64 82 -244 149 -349 130z m207 -235
c119 -45 159 -237 71 -343 -38 -46 -81 -66 -145 -66 -125 0 -209 114 -187 256
8 55 55 122 104 146 39 20 114 23 157 7z"/>
<path d="M6260 5063 c0 -4 -1 -229 -2 -500 -3 -482 -3 -492 -24 -520 -18 -24
-29 -29 -85 -33 l-64 -5 -3 -92 c-3 -87 -1 -93 20 -104 13 -7 57 -14 99 -17
178 -10 288 70 318 233 14 73 15 697 1 777 -17 108 -75 190 -163 232 -63 30
-97 40 -97 29z"/>
<path d="M7680 4566 l0 -507 -25 -24 c-20 -20 -34 -25 -78 -25 -66 0 -67 -2
-67 -110 0 -96 6 -101 121 -108 149 -9 254 49 301 166 23 56 23 63 23 457 0
452 -2 464 -76 549 -38 43 -113 88 -171 102 l-28 6 0 -506z"/>
<path d="M6710 5050 l-25 -6 0 -269 c0 -229 3 -280 18 -335 26 -92 71 -151
148 -189 54 -27 73 -31 140 -31 111 0 174 25 238 96 l50 54 53 -53 c49 -49
121 -87 165 -87 11 0 13 76 13 404 0 223 -4 407 -8 410 -8 5 -178 10 -234 7
l-28 -1 0 -210 c0 -244 -8 -292 -56 -349 -59 -68 -154 -70 -199 -3 l-25 37 0
258 c0 197 -3 259 -12 262 -24 7 -213 12 -238 5z"/>
<path d="M8704 5052 c-23 -2 -34 -9 -38 -25 -3 -12 -6 -119 -6 -237 0 -187 -3
-220 -19 -255 -29 -63 -62 -88 -125 -93 -48 -4 -56 -1 -87 26 l-34 30 -6 274
c-3 150 -6 274 -7 276 -1 1 -60 2 -132 2 l-130 0 -6 -25 c-3 -14 -4 -143 -2
-287 6 -292 13 -333 71 -410 21 -27 56 -55 96 -75 55 -29 72 -33 142 -33 118
0 198 38 258 121 l28 38 32 -44 c32 -45 105 -89 169 -101 l32 -6 0 398 c0 220
-4 404 -8 411 -8 12 -160 22 -228 15z"/>
<path d="M9325 4503 c-103 -54 -143 -168 -94 -269 71 -148 282 -146 356 4 33
67 28 136 -14 196 -53 75 -173 109 -248 69z m132 -13 c32 0 100 -64 114 -107
15 -47 7 -128 -18 -161 -10 -15 -45 -40 -76 -56 -54 -27 -60 -28 -103 -16
-115 33 -169 148 -119 254 28 58 105 101 160 90 11 -2 30 -4 42 -4z"/>
<path d="M9342 4323 c3 -108 18 -143 28 -66 7 52 37 52 65 1 20 -37 42 -54 54
-43 3 4 -5 24 -17 46 l-23 39 23 31 c21 28 21 32 8 57 -17 28 -44 39 -103 41
l-38 1 3 -107z m101 56 c17 -28 1 -49 -38 -49 -33 0 -35 2 -35 36 0 34 1 35
31 32 18 -2 37 -10 42 -19z"/>
</g>
</svg>
